<svg width="826" height="477" viewBox="0 0 826 477" fill="none" xmlns="http://www.w3.org/2000/svg">
<path d="M140.79 341.166L171.93 359.136L171.16 360.126C150.49 385.346 124.88 398.126 95.08 398.126C82.21 398.126 69.86 395.636 58.37 390.706C46.88 385.776 36.58 378.826 27.79 369.986C19.17 361.406 12.35 351.076 7.42 339.366C2.49 327.616 0 315.136 0 302.266C0 289.396 2.49 276.916 7.42 265.166C12.35 253.456 19.17 243.126 27.79 234.546C36.63 225.716 46.92 218.766 58.37 213.836C69.86 208.906 82.22 206.416 95.08 206.416C124.89 206.416 150.45 219.196 171.16 244.416L171.93 245.406L140.79 263.376L140.19 262.776C127.41 249.266 112.27 242.406 95.07 242.406C87.01 242.406 79.24 243.956 71.99 247.036C64.74 250.076 58.35 254.366 52.95 259.776C47.55 265.176 43.21 271.656 40.04 278.986C36.82 286.366 35.24 294.166 35.24 302.276C35.24 310.386 36.83 318.186 40.04 325.526C43.21 332.906 47.59 339.376 52.95 344.786C58.35 350.146 64.74 354.436 71.99 357.526C79.2 360.566 87 362.156 95.07 362.156C112.27 362.156 127.45 355.296 140.19 341.786L140.79 341.186V341.166Z" fill="white"/>
<path d="M597.63 265.166C592.7 253.456 585.75 242.906 576.91 233.816C568.33 224.726 558 217.606 546.29 212.716C534.54 207.786 522.06 205.296 509.19 205.296C497.27 205.296 485.73 208.216 474.84 214.046C464.85 219.406 456.01 226.446 448.59 235.016V210.526H412.95V476.346H448.59V372.646C455.92 381.566 464.12 388.256 472.99 392.546C482.64 397.266 494.82 399.626 509.19 399.626C522.06 399.626 534.54 397.056 546.29 392.036C558.04 386.976 568.33 379.946 576.91 371.106C585.75 362.016 592.69 351.506 597.63 339.926C602.56 328.306 605.05 315.776 605.05 302.656C605.05 289.536 602.56 276.926 597.63 265.166ZM564.44 325.936C561.35 333.266 557.06 339.876 551.66 345.536C546.3 351.156 539.82 355.656 532.49 358.836C517.78 365.186 500.62 365.186 485.91 358.836C478.58 355.616 472.1 351.156 466.74 345.536C461.34 339.876 456.96 333.266 453.75 325.896C450.58 318.566 448.99 310.716 448.99 302.656C448.99 294.596 450.58 286.656 453.79 279.196C456.96 271.686 461.3 265.046 466.74 259.386C472.1 253.766 478.58 249.346 485.91 246.266C500.62 240.136 517.77 240.136 532.49 246.266C539.82 249.356 546.3 253.776 551.66 259.386C557.06 265.046 561.35 271.696 564.44 279.156C567.48 286.666 569.07 294.556 569.07 302.656C569.07 310.756 567.48 318.566 564.44 325.946V325.936Z" fill="white"/>
<path d="M789.09 210.526V233.556C781.88 225.496 773.22 219.056 763.36 214.386C752.59 209.326 740.97 206.796 728.83 206.796C715.75 206.796 703.27 209.196 691.78 214.006C680.29 218.806 669.99 225.716 661.16 234.546C652.32 243.386 645.33 253.806 640.4 265.556C635.51 277.306 632.98 289.786 632.98 302.656C632.98 315.526 635.51 328.006 640.4 339.716C645.33 351.466 652.32 361.806 661.16 370.336C670 379.176 680.29 386.116 691.78 390.876C703.23 395.676 715.71 398.126 728.83 398.126C740.75 398.126 752.2 395.296 762.84 389.716C772.62 384.616 781.41 377.796 789.09 369.386V396.236H825.07V210.536H789.09V210.526ZM784.07 325.936C781.03 333.266 776.74 339.746 771.33 345.146C765.93 350.506 759.49 354.796 752.12 357.886C737.45 364.016 720.3 364.016 705.37 357.886C697.91 354.796 691.35 350.506 685.98 345.146C680.58 339.746 676.29 333.266 673.24 325.936C670.15 318.556 668.61 310.756 668.61 302.646C668.61 294.536 670.15 286.646 673.24 279.146C676.28 271.686 680.57 265.166 685.98 259.756C691.34 254.356 697.9 250.106 705.37 247.016C720.34 240.886 737.41 240.886 752.12 247.016C759.5 250.056 765.93 254.346 771.33 259.756C776.73 265.156 781.02 271.676 784.07 279.146C787.16 286.656 788.7 294.546 788.7 302.646C788.7 310.746 787.15 318.556 784.07 325.936Z" fill="white"/>
<path d="M325.25 212.026C296.26 198.006 268.17 209.026 239.39 199.036C205.34 187.156 183.33 157.216 178.79 123.166C177.76 115.526 177.59 107.636 178.4 99.7459C181.57 67.8359 183.33 45.0659 156.83 20.5359C94.1701 -37.4041 -4.16985 37.8259 39.6201 115.106C63.9801 158.126 99.7001 146.966 133.93 158.166C139.63 160.006 145.25 162.456 150.83 165.886C178.41 182.956 195.26 212.976 195.69 245.056C195.69 247.886 195.6 250.716 195.39 253.596C194.28 267.836 187.76 280.996 187.11 296.096C186.34 313.726 190.24 330.366 197.62 344.906C198.05 345.806 198.52 346.706 198.99 347.566C218.97 384.326 261.26 406.876 305.52 396.846C397.73 375.916 410.21 253.216 325.25 212.036V212.026ZM340.48 325.166C337.26 332.546 332.93 339.106 327.53 344.766C322.13 350.426 315.56 354.886 307.93 358.066C292.75 364.456 275.63 364.456 261.22 358.066C253.97 354.896 247.41 350.386 241.79 344.766C236.13 339.106 231.67 332.496 228.45 325.166C225.28 317.786 223.65 309.986 223.65 301.876C223.65 293.766 225.28 285.836 228.45 278.246C231.67 270.606 236.13 263.916 241.79 258.256C253.54 246.506 267.87 240.496 284.29 240.496C292.61 240.496 300.63 242.086 308.14 245.126C315.6 248.216 322.12 252.586 327.53 258.246C332.93 263.866 337.27 270.596 340.48 278.236C343.65 285.826 345.28 293.806 345.28 301.866C345.28 309.926 343.65 317.776 340.48 325.156V325.166Z" fill="white"/>
<path d="M345.28 99.6058C345.28 107.716 343.65 115.516 340.48 122.896C337.26 130.276 332.93 136.836 327.53 142.496C322.13 148.156 315.56 152.616 307.93 155.796C292.75 162.186 275.63 162.186 261.22 155.796C253.97 152.626 247.41 148.116 241.79 142.496C236.13 136.836 231.67 130.226 228.45 122.896C225.28 115.516 223.65 107.716 223.65 99.6058C223.65 91.4958 225.28 83.5658 228.45 75.9758C231.67 68.3358 236.13 61.6458 241.79 55.9858C253.54 44.2358 267.87 38.2258 284.29 38.2258C292.61 38.2258 300.63 39.8158 308.14 42.8558C315.6 45.9458 322.12 50.3158 327.53 55.9758C332.93 61.5958 337.27 68.3259 340.48 75.9659C343.65 83.5559 345.28 91.5359 345.28 99.5959V99.6058Z" fill="#C4001A"/>
</svg>
